<?xml version="1.0" encoding="UTF-8" standalone="no"?>
<!DOCTYPE svg PUBLIC "-//W3C//DTD SVG 1.1//EN"
 "http://www.w3.org/Graphics/SVG/1.1/DTD/svg11.dtd">
<!-- Generated by graphviz version 2.40.1 (20161225.0304)
 -->
<!-- Title: dependencies Pages: 1 -->
<svg width="3480pt" height="211pt"
 viewBox="0.00 0.00 3480.00 211.00" xmlns="http://www.w3.org/2000/svg" xmlns:xlink="http://www.w3.org/1999/xlink">
<g id="graph0" class="graph" transform="scale(1 1) rotate(0) translate(4 207)">
<title>dependencies</title>
<polygon fill="#ffffff" stroke="transparent" points="-4,4 -4,-207 3476,-207 3476,4 -4,4"/>
<text text-anchor="start" x="1715.0091" y="-42.4" font-family="sans-serif" font-weight="bold" font-size="14.00" fill="#000000">Legend</text>
<polygon fill="#ffffb3" stroke="transparent" points="1502,-10 1502,-30 1522,-30 1522,-10 1502,-10"/>
<text text-anchor="start" x="1525.629" y="-15.4" font-family="sans-serif" font-size="14.00" fill="#000000"> &#160;Declarations</text>
<polygon fill="#8dd3c7" stroke="transparent" points="1615,-10 1615,-30 1635,-30 1635,-10 1615,-10"/>
<text text-anchor="start" x="1638.7251" y="-15.4" font-family="sans-serif" font-size="14.00" fill="#000000"> &#160;Module</text>
<polygon fill="#80b1d3" stroke="transparent" points="1701,-10 1701,-30 1721,-30 1721,-10 1701,-10"/>
<text text-anchor="start" x="1724.7812" y="-15.4" font-family="sans-serif" font-size="14.00" fill="#000000"> &#160;Bootstrap</text>
<polygon fill="#fdb462" stroke="transparent" points="1798,-10 1798,-30 1818,-30 1818,-10 1798,-10"/>
<text text-anchor="start" x="1821.6732" y="-15.4" font-family="sans-serif" font-size="14.00" fill="#000000"> &#160;Providers</text>
<polygon fill="#fb8072" stroke="transparent" points="1894,-10 1894,-30 1914,-30 1914,-10 1894,-10"/>
<text text-anchor="start" x="1917.7258" y="-15.4" font-family="sans-serif" font-size="14.00" fill="#000000"> &#160;Exports</text>
<g id="clust1" class="cluster">
<title>cluster_DoctorModule</title>
<polygon fill="none" stroke="#000000" stroke-dasharray="1,5" points="8,-70 8,-195 3464,-195 3464,-70 8,-70"/>
</g>
<g id="clust2" class="cluster">
<title>cluster_DoctorModule_declarations</title>
<polygon fill="none" stroke="#000000" points="541,-78 541,-130 3456,-130 3456,-78 541,-78"/>
</g>
<g id="clust20" class="cluster">
<title>cluster_DoctorModule_imports</title>
<polygon fill="none" stroke="#000000" points="156,-78 156,-130 533,-130 533,-78 156,-78"/>
</g>
<g id="clust23" class="cluster">
<title>cluster_DoctorModule_providers</title>
<polygon fill="none" stroke="#000000" points="16,-78 16,-130 148,-130 148,-78 16,-78"/>
</g>
<!-- ProfileComponent -->
<g id="node1" class="node">
<title>ProfileComponent</title>
<polygon fill="#ffffb3" stroke="#000000" points="3447.9328,-122 3328.0672,-122 3328.0672,-86 3447.9328,-86 3447.9328,-122"/>
<text text-anchor="middle" x="3388" y="-99.8" font-family="Times,serif" font-size="14.00" fill="#000000">ProfileComponent</text>
</g>
<!-- DoctorModule -->
<g id="node18" class="node">
<title>DoctorModule</title>
<polygon fill="#8dd3c7" stroke="#000000" points="1713.4231,-187 1710.4231,-191 1689.4231,-191 1686.4231,-187 1614.5769,-187 1614.5769,-151 1713.4231,-151 1713.4231,-187"/>
<text text-anchor="middle" x="1664" y="-164.8" font-family="Times,serif" font-size="14.00" fill="#000000">DoctorModule</text>
</g>
<!-- ProfileComponent&#45;&gt;DoctorModule -->
<g id="edge1" class="edge">
<title>ProfileComponent&#45;&gt;DoctorModule</title>
<path fill="none" stroke="#000000" d="M3388,-122.1532C3388,-145.7566 3388,-184 3388,-184 3388,-184 1723.2768,-184 1723.2768,-184"/>
<polygon fill="#000000" stroke="#000000" points="1723.2769,-180.5001 1713.2768,-184 1723.2768,-187.5001 1723.2769,-180.5001"/>
</g>
<!-- AddProfileComponent -->
<g id="node2" class="node">
<title>AddProfileComponent</title>
<polygon fill="#ffffb3" stroke="#000000" points="3310.5393,-122 3167.4607,-122 3167.4607,-86 3310.5393,-86 3310.5393,-122"/>
<text text-anchor="middle" x="3239" y="-99.8" font-family="Times,serif" font-size="14.00" fill="#000000">AddProfileComponent</text>
</g>
<!-- AddProfileComponent&#45;&gt;DoctorModule -->
<g id="edge2" class="edge">
<title>AddProfileComponent&#45;&gt;DoctorModule</title>
<path fill="none" stroke="#000000" d="M3239,-122.2479C3239,-145.0179 3239,-181 3239,-181 3239,-181 1723.2999,-181 1723.2999,-181"/>
<polygon fill="#000000" stroke="#000000" points="1723.3,-177.5001 1713.2999,-181 1723.2999,-184.5001 1723.3,-177.5001"/>
</g>
<!-- EditProfileComponent -->
<g id="node3" class="node">
<title>EditProfileComponent</title>
<polygon fill="#ffffb3" stroke="#000000" points="3149.266,-122 3006.734,-122 3006.734,-86 3149.266,-86 3149.266,-122"/>
<text text-anchor="middle" x="3078" y="-99.8" font-family="Times,serif" font-size="14.00" fill="#000000">EditProfileComponent</text>
</g>
<!-- EditProfileComponent&#45;&gt;DoctorModule -->
<g id="edge3" class="edge">
<title>EditProfileComponent&#45;&gt;DoctorModule</title>
<path fill="none" stroke="#000000" d="M3078,-122.2921C3078,-144.2057 3078,-178 3078,-178 3078,-178 1723.4959,-178 1723.4959,-178"/>
<polygon fill="#000000" stroke="#000000" points="1723.4959,-174.5001 1713.4959,-178 1723.4959,-181.5001 1723.4959,-174.5001"/>
</g>
<!-- FindClientComponent -->
<g id="node4" class="node">
<title>FindClientComponent</title>
<polygon fill="#ffffb3" stroke="#000000" points="2988.7288,-122 2847.2712,-122 2847.2712,-86 2988.7288,-86 2988.7288,-122"/>
<text text-anchor="middle" x="2918" y="-99.8" font-family="Times,serif" font-size="14.00" fill="#000000">FindClientComponent</text>
</g>
<!-- FindClientComponent&#45;&gt;DoctorModule -->
<g id="edge4" class="edge">
<title>FindClientComponent&#45;&gt;DoctorModule</title>
<path fill="none" stroke="#000000" d="M2918,-122.0267C2918,-142.7672 2918,-174 2918,-174 2918,-174 1723.5445,-174 1723.5445,-174"/>
<polygon fill="#000000" stroke="#000000" points="1723.5446,-170.5001 1713.5445,-174 1723.5445,-177.5001 1723.5446,-170.5001"/>
</g>
<!-- DoctorListComponent -->
<g id="node5" class="node">
<title>DoctorListComponent</title>
<polygon fill="#ffffb3" stroke="#000000" points="2828.9832,-122 2687.0168,-122 2687.0168,-86 2828.9832,-86 2828.9832,-122"/>
<text text-anchor="middle" x="2758" y="-99.8" font-family="Times,serif" font-size="14.00" fill="#000000">DoctorListComponent</text>
</g>
<!-- DoctorListComponent&#45;&gt;DoctorModule -->
<g id="edge5" class="edge">
<title>DoctorListComponent&#45;&gt;DoctorModule</title>
<path fill="none" stroke="#000000" d="M2758,-122.308C2758,-142.1455 2758,-171 2758,-171 2758,-171 1723.4904,-171 1723.4904,-171"/>
<polygon fill="#000000" stroke="#000000" points="1723.4904,-167.5001 1713.4904,-171 1723.4903,-174.5001 1723.4904,-167.5001"/>
</g>
<!-- PatientListComponent -->
<g id="node6" class="node">
<title>PatientListComponent</title>
<polygon fill="#ffffb3" stroke="#000000" points="2668.9944,-122 2527.0056,-122 2527.0056,-86 2668.9944,-86 2668.9944,-122"/>
<text text-anchor="middle" x="2598" y="-99.8" font-family="Times,serif" font-size="14.00" fill="#000000">PatientListComponent</text>
</g>
<!-- PatientListComponent&#45;&gt;DoctorModule -->
<g id="edge6" class="edge">
<title>PatientListComponent&#45;&gt;DoctorModule</title>
<path fill="none" stroke="#000000" d="M2598,-122.1686C2598,-141.0898 2598,-168 2598,-168 2598,-168 1723.2282,-168 1723.2282,-168"/>
<polygon fill="#000000" stroke="#000000" points="1723.2282,-164.5001 1713.2282,-168 1723.2281,-171.5001 1723.2282,-164.5001"/>
</g>
<!-- AccessRequestListComponent -->
<g id="node7" class="node">
<title>AccessRequestListComponent</title>
<polygon fill="#ffffb3" stroke="#000000" points="2508.8515,-122 2321.1485,-122 2321.1485,-86 2508.8515,-86 2508.8515,-122"/>
<text text-anchor="middle" x="2415" y="-99.8" font-family="Times,serif" font-size="14.00" fill="#000000">AccessRequestListComponent</text>
</g>
<!-- AccessRequestListComponent&#45;&gt;DoctorModule -->
<g id="edge7" class="edge">
<title>AccessRequestListComponent&#45;&gt;DoctorModule</title>
<path fill="none" stroke="#000000" d="M2415,-122.302C2415,-140.2699 2415,-165 2415,-165 2415,-165 1723.2752,-165 1723.2752,-165"/>
<polygon fill="#000000" stroke="#000000" points="1723.2752,-161.5001 1713.2752,-165 1723.2752,-168.5001 1723.2752,-161.5001"/>
</g>
<!-- AuthorisedPatientsComponent -->
<g id="node8" class="node">
<title>AuthorisedPatientsComponent</title>
<polygon fill="#ffffb3" stroke="#000000" points="2302.8682,-122 2115.1318,-122 2115.1318,-86 2302.8682,-86 2302.8682,-122"/>
<text text-anchor="middle" x="2209" y="-99.8" font-family="Times,serif" font-size="14.00" fill="#000000">AuthorisedPatientsComponent</text>
</g>
<!-- AuthorisedPatientsComponent&#45;&gt;DoctorModule -->
<g id="edge8" class="edge">
<title>AuthorisedPatientsComponent&#45;&gt;DoctorModule</title>
<path fill="none" stroke="#000000" d="M2209,-122.0352C2209,-138.7344 2209,-161 2209,-161 2209,-161 1723.3263,-161 1723.3263,-161"/>
<polygon fill="#000000" stroke="#000000" points="1723.3264,-157.5001 1713.3263,-161 1723.3263,-164.5001 1723.3264,-157.5001"/>
</g>
<!-- PatientDetailsComponent -->
<g id="node9" class="node">
<title>PatientDetailsComponent</title>
<polygon fill="#ffffb3" stroke="#000000" points="2096.8683,-122 1937.1317,-122 1937.1317,-86 2096.8683,-86 2096.8683,-122"/>
<text text-anchor="middle" x="2017" y="-99.8" font-family="Times,serif" font-size="14.00" fill="#000000">PatientDetailsComponent</text>
</g>
<!-- PatientDetailsComponent&#45;&gt;DoctorModule -->
<g id="edge9" class="edge">
<title>PatientDetailsComponent&#45;&gt;DoctorModule</title>
<path fill="none" stroke="#000000" d="M2017,-122.2819C2017,-137.9478 2017,-158 2017,-158 2017,-158 1723.4548,-158 1723.4548,-158"/>
<polygon fill="#000000" stroke="#000000" points="1723.4549,-154.5001 1713.4548,-158 1723.4548,-161.5001 1723.4549,-154.5001"/>
</g>
<!-- AddPrescriptionComponent -->
<g id="node10" class="node">
<title>AddPrescriptionComponent</title>
<polygon fill="#ffffb3" stroke="#000000" points="1919.5884,-122 1746.4116,-122 1746.4116,-86 1919.5884,-86 1919.5884,-122"/>
<text text-anchor="middle" x="1833" y="-99.8" font-family="Times,serif" font-size="14.00" fill="#000000">AddPrescriptionComponent</text>
</g>
<!-- AddPrescriptionComponent&#45;&gt;DoctorModule -->
<g id="edge10" class="edge">
<title>AddPrescriptionComponent&#45;&gt;DoctorModule</title>
<path fill="none" stroke="#000000" d="M1833,-122.1243C1833,-136.7832 1833,-155 1833,-155 1833,-155 1723.3361,-155 1723.3361,-155"/>
<polygon fill="#000000" stroke="#000000" points="1723.3361,-151.5001 1713.3361,-155 1723.3361,-158.5001 1723.3361,-151.5001"/>
</g>
<!-- AddTestComponent -->
<g id="node11" class="node">
<title>AddTestComponent</title>
<polygon fill="#ffffb3" stroke="#000000" points="1728.5422,-122 1599.4578,-122 1599.4578,-86 1728.5422,-86 1728.5422,-122"/>
<text text-anchor="middle" x="1664" y="-99.8" font-family="Times,serif" font-size="14.00" fill="#000000">AddTestComponent</text>
</g>
<!-- AddTestComponent&#45;&gt;DoctorModule -->
<g id="edge11" class="edge">
<title>AddTestComponent&#45;&gt;DoctorModule</title>
<path fill="none" stroke="#000000" d="M1664,-122.1061C1664,-122.1061 1664,-140.991 1664,-140.991"/>
<polygon fill="#000000" stroke="#000000" points="1660.5001,-140.9909 1664,-150.991 1667.5001,-140.991 1660.5001,-140.9909"/>
</g>
<!-- FileUploadComponent -->
<g id="node12" class="node">
<title>FileUploadComponent</title>
<polygon fill="#ffffb3" stroke="#000000" points="1581.323,-122 1436.677,-122 1436.677,-86 1581.323,-86 1581.323,-122"/>
<text text-anchor="middle" x="1509" y="-99.8" font-family="Times,serif" font-size="14.00" fill="#000000">FileUploadComponent</text>
</g>
<!-- FileUploadComponent&#45;&gt;DoctorModule -->
<g id="edge12" class="edge">
<title>FileUploadComponent&#45;&gt;DoctorModule</title>
<path fill="none" stroke="#000000" d="M1509,-122.1243C1509,-136.7832 1509,-155 1509,-155 1509,-155 1604.5309,-155 1604.5309,-155"/>
<polygon fill="#000000" stroke="#000000" points="1604.5309,-158.5001 1614.5309,-155 1604.5308,-151.5001 1604.5309,-158.5001"/>
</g>
<!-- AppointmentListComponent -->
<g id="node13" class="node">
<title>AppointmentListComponent</title>
<polygon fill="#ffffb3" stroke="#000000" points="1418.4944,-122 1241.5056,-122 1241.5056,-86 1418.4944,-86 1418.4944,-122"/>
<text text-anchor="middle" x="1330" y="-99.8" font-family="Times,serif" font-size="14.00" fill="#000000">AppointmentListComponent</text>
</g>
<!-- AppointmentListComponent&#45;&gt;DoctorModule -->
<g id="edge13" class="edge">
<title>AppointmentListComponent&#45;&gt;DoctorModule</title>
<path fill="none" stroke="#000000" d="M1330,-122.2819C1330,-137.9478 1330,-158 1330,-158 1330,-158 1604.7171,-158 1604.7171,-158"/>
<polygon fill="#000000" stroke="#000000" points="1604.7172,-161.5001 1614.7171,-158 1604.7171,-154.5001 1604.7172,-161.5001"/>
</g>
<!-- SchudualDayComponent -->
<g id="node14" class="node">
<title>SchudualDayComponent</title>
<polygon fill="#ffffb3" stroke="#000000" points="1223.2562,-122 1066.7438,-122 1066.7438,-86 1223.2562,-86 1223.2562,-122"/>
<text text-anchor="middle" x="1145" y="-99.8" font-family="Times,serif" font-size="14.00" fill="#000000">SchudualDayComponent</text>
</g>
<!-- SchudualDayComponent&#45;&gt;DoctorModule -->
<g id="edge14" class="edge">
<title>SchudualDayComponent&#45;&gt;DoctorModule</title>
<path fill="none" stroke="#000000" d="M1145,-122.0352C1145,-138.7344 1145,-161 1145,-161 1145,-161 1604.7058,-161 1604.7058,-161"/>
<polygon fill="#000000" stroke="#000000" points="1604.7059,-164.5001 1614.7058,-161 1604.7058,-157.5001 1604.7059,-164.5001"/>
</g>
<!-- SchudualViewComponent -->
<g id="node15" class="node">
<title>SchudualViewComponent</title>
<polygon fill="#ffffb3" stroke="#000000" points="1048.7534,-122 885.2466,-122 885.2466,-86 1048.7534,-86 1048.7534,-122"/>
<text text-anchor="middle" x="967" y="-99.8" font-family="Times,serif" font-size="14.00" fill="#000000">SchudualViewComponent</text>
</g>
<!-- SchudualViewComponent&#45;&gt;DoctorModule -->
<g id="edge15" class="edge">
<title>SchudualViewComponent&#45;&gt;DoctorModule</title>
<path fill="none" stroke="#000000" d="M967,-122.302C967,-140.2699 967,-165 967,-165 967,-165 1604.7106,-165 1604.7106,-165"/>
<polygon fill="#000000" stroke="#000000" points="1604.7106,-168.5001 1614.7106,-165 1604.7106,-161.5001 1604.7106,-168.5001"/>
</g>
<!-- DashboardComponent -->
<g id="node16" class="node">
<title>DashboardComponent</title>
<polygon fill="#ffffb3" stroke="#000000" points="866.9734,-122 725.0266,-122 725.0266,-86 866.9734,-86 866.9734,-122"/>
<text text-anchor="middle" x="796" y="-99.8" font-family="Times,serif" font-size="14.00" fill="#000000">DashboardComponent</text>
</g>
<!-- DashboardComponent&#45;&gt;DoctorModule -->
<g id="edge16" class="edge">
<title>DashboardComponent&#45;&gt;DoctorModule</title>
<path fill="none" stroke="#000000" d="M796,-122.1686C796,-141.0898 796,-168 796,-168 796,-168 1604.5307,-168 1604.5307,-168"/>
<polygon fill="#000000" stroke="#000000" points="1604.5307,-171.5001 1614.5307,-168 1604.5307,-164.5001 1604.5307,-171.5001"/>
</g>
<!-- SlotAnalyticsComponent -->
<g id="node17" class="node">
<title>SlotAnalyticsComponent</title>
<polygon fill="#ffffb3" stroke="#000000" points="706.549,-122 549.451,-122 549.451,-86 706.549,-86 706.549,-122"/>
<text text-anchor="middle" x="628" y="-99.8" font-family="Times,serif" font-size="14.00" fill="#000000">SlotAnalyticsComponent</text>
</g>
<!-- SlotAnalyticsComponent&#45;&gt;DoctorModule -->
<g id="edge17" class="edge">
<title>SlotAnalyticsComponent&#45;&gt;DoctorModule</title>
<path fill="none" stroke="#000000" d="M628,-122.308C628,-142.1455 628,-171 628,-171 628,-171 1604.7285,-171 1604.7285,-171"/>
<polygon fill="#000000" stroke="#000000" points="1604.7286,-174.5001 1614.7285,-171 1604.7285,-167.5001 1604.7286,-174.5001"/>
</g>
<!-- MaterialModule -->
<g id="node19" class="node">
<title>MaterialModule</title>
<polygon fill="#8dd3c7" stroke="#000000" points="525.4706,-122 522.4706,-126 501.4706,-126 498.4706,-122 418.5294,-122 418.5294,-86 525.4706,-86 525.4706,-122"/>
<text text-anchor="middle" x="472" y="-99.8" font-family="Times,serif" font-size="14.00" fill="#000000">MaterialModule</text>
</g>
<!-- MaterialModule&#45;&gt;DoctorModule -->
<g id="edge18" class="edge">
<title>MaterialModule&#45;&gt;DoctorModule</title>
<path fill="none" stroke="#000000" d="M472,-122.0267C472,-142.7672 472,-174 472,-174 472,-174 1604.675,-174 1604.675,-174"/>
<polygon fill="#000000" stroke="#000000" points="1604.6751,-177.5001 1614.675,-174 1604.675,-170.5001 1604.6751,-177.5001"/>
</g>
<!-- UiLoadingModule -->
<g id="node20" class="node">
<title>UiLoadingModule</title>
<polygon fill="#8dd3c7" stroke="#000000" points="400.205,-122 397.205,-126 376.205,-126 373.205,-122 279.795,-122 279.795,-86 400.205,-86 400.205,-122"/>
<text text-anchor="middle" x="340" y="-99.8" font-family="Times,serif" font-size="14.00" fill="#000000">UiLoadingModule</text>
</g>
<!-- UiLoadingModule&#45;&gt;DoctorModule -->
<g id="edge19" class="edge">
<title>UiLoadingModule&#45;&gt;DoctorModule</title>
<path fill="none" stroke="#000000" d="M340,-122.2921C340,-144.2057 340,-178 340,-178 340,-178 1604.5141,-178 1604.5141,-178"/>
<polygon fill="#000000" stroke="#000000" points="1604.5141,-181.5001 1614.5141,-178 1604.514,-174.5001 1604.5141,-181.5001"/>
</g>
<!-- SharedModule -->
<g id="node21" class="node">
<title>SharedModule</title>
<polygon fill="#8dd3c7" stroke="#000000" points="262.4231,-122 259.4231,-126 238.4231,-126 235.4231,-122 163.5769,-122 163.5769,-86 262.4231,-86 262.4231,-122"/>
<text text-anchor="middle" x="213" y="-99.8" font-family="Times,serif" font-size="14.00" fill="#000000">SharedModule</text>
</g>
<!-- SharedModule&#45;&gt;DoctorModule -->
<g id="edge20" class="edge">
<title>SharedModule&#45;&gt;DoctorModule</title>
<path fill="none" stroke="#000000" d="M213,-122.2479C213,-145.0179 213,-181 213,-181 213,-181 1604.4731,-181 1604.4731,-181"/>
<polygon fill="#000000" stroke="#000000" points="1604.4731,-184.5001 1614.4731,-181 1604.473,-177.5001 1604.4731,-184.5001"/>
</g>
<!-- DataService -->
<g id="node22" class="node">
<title>DataService</title>
<ellipse fill="#fdb462" stroke="#000000" cx="82" cy="-104" rx="58.4415" ry="18"/>
<text text-anchor="middle" x="82" y="-99.8" font-family="Times,serif" font-size="14.00" fill="#000000">DataService</text>
</g>
<!-- DataService&#45;&gt;DoctorModule -->
<g id="edge21" class="edge">
<title>DataService&#45;&gt;DoctorModule</title>
<path fill="none" stroke="#000000" d="M82,-122.1532C82,-145.7566 82,-184 82,-184 82,-184 1604.481,-184 1604.481,-184"/>
<polygon fill="#000000" stroke="#000000" points="1604.481,-187.5001 1614.481,-184 1604.4809,-180.5001 1604.481,-187.5001"/>
</g>
</g>
</svg>
