<?xml version="1.0" encoding="UTF-8" standalone="no"?>
<!DOCTYPE svg PUBLIC "-//W3C//DTD SVG 1.1//EN"
 "http://www.w3.org/Graphics/SVG/1.1/DTD/svg11.dtd">
<!-- Generated by graphviz version 2.40.1 (20161225.0304)
 -->
<!-- Title: dependencies Pages: 1 -->
<svg width="2059pt" height="284pt"
 viewBox="0.00 0.00 2059.00 284.00" xmlns="http://www.w3.org/2000/svg" xmlns:xlink="http://www.w3.org/1999/xlink">
<g id="graph0" class="graph" transform="scale(1 1) rotate(0) translate(4 280)">
<title>dependencies</title>
<polygon fill="#ffffff" stroke="transparent" points="-4,4 -4,-280 2055,-280 2055,4 -4,4"/>
<text text-anchor="start" x="1004.5091" y="-42.4" font-family="sans-serif" font-weight="bold" font-size="14.00" fill="#000000">Legend</text>
<polygon fill="#ffffb3" stroke="transparent" points="791.5,-10 791.5,-30 811.5,-30 811.5,-10 791.5,-10"/>
<text text-anchor="start" x="815.129" y="-15.4" font-family="sans-serif" font-size="14.00" fill="#000000"> &#160;Declarations</text>
<polygon fill="#8dd3c7" stroke="transparent" points="904.5,-10 904.5,-30 924.5,-30 924.5,-10 904.5,-10"/>
<text text-anchor="start" x="928.2251" y="-15.4" font-family="sans-serif" font-size="14.00" fill="#000000"> &#160;Module</text>
<polygon fill="#80b1d3" stroke="transparent" points="990.5,-10 990.5,-30 1010.5,-30 1010.5,-10 990.5,-10"/>
<text text-anchor="start" x="1014.2812" y="-15.4" font-family="sans-serif" font-size="14.00" fill="#000000"> &#160;Bootstrap</text>
<polygon fill="#fdb462" stroke="transparent" points="1087.5,-10 1087.5,-30 1107.5,-30 1107.5,-10 1087.5,-10"/>
<text text-anchor="start" x="1111.1732" y="-15.4" font-family="sans-serif" font-size="14.00" fill="#000000"> &#160;Providers</text>
<polygon fill="#fb8072" stroke="transparent" points="1183.5,-10 1183.5,-30 1203.5,-30 1203.5,-10 1183.5,-10"/>
<text text-anchor="start" x="1207.2258" y="-15.4" font-family="sans-serif" font-size="14.00" fill="#000000"> &#160;Exports</text>
<g id="clust1" class="cluster">
<title>cluster_UiLoadingModule</title>
<polygon fill="none" stroke="#000000" stroke-dasharray="1,5" points="8,-70 8,-268 2043,-268 2043,-70 8,-70"/>
</g>
<g id="clust2" class="cluster">
<title>cluster_UiLoadingModule_declarations</title>
<polygon fill="none" stroke="#000000" points="39,-78 39,-130 2021,-130 2021,-78 39,-78"/>
</g>
<g id="clust14" class="cluster">
<title>cluster_UiLoadingModule_exports</title>
<polygon fill="none" stroke="#000000" points="16,-208 16,-260 2035,-260 2035,-208 16,-208"/>
</g>
<!-- LoadingSpinnerRectComponent -->
<g id="node1" class="node">
<title>LoadingSpinnerRectComponent</title>
<polygon fill="#ffffb3" stroke="#000000" points="2012.6951,-122 1815.3049,-122 1815.3049,-86 2012.6951,-86 2012.6951,-122"/>
<text text-anchor="middle" x="1914" y="-99.8" font-family="Times,serif" font-size="14.00" fill="#000000">LoadingSpinnerRectComponent</text>
</g>
<!-- UiLoadingModule -->
<g id="node11" class="node">
<title>UiLoadingModule</title>
<polygon fill="#8dd3c7" stroke="#000000" points="934.205,-187 931.205,-191 910.205,-191 907.205,-187 813.795,-187 813.795,-151 934.205,-151 934.205,-187"/>
<text text-anchor="middle" x="874" y="-164.8" font-family="Times,serif" font-size="14.00" fill="#000000">UiLoadingModule</text>
</g>
<!-- LoadingSpinnerRectComponent&#45;&gt;UiLoadingModule -->
<g id="edge1" class="edge">
<title>LoadingSpinnerRectComponent&#45;&gt;UiLoadingModule</title>
<path fill="none" stroke="#000000" d="M1821.0275,-122.1686C1821.0275,-141.0898 1821.0275,-168 1821.0275,-168 1821.0275,-168 944.3199,-168 944.3199,-168"/>
<polygon fill="#000000" stroke="#000000" points="944.3199,-164.5001 934.3199,-168 944.3199,-171.5001 944.3199,-164.5001"/>
</g>
<!-- LoadingSpinnerComponent -->
<g id="node2" class="node">
<title>LoadingSpinnerComponent</title>
<polygon fill="#ffffb3" stroke="#000000" points="1797.5392,-122 1626.4608,-122 1626.4608,-86 1797.5392,-86 1797.5392,-122"/>
<text text-anchor="middle" x="1712" y="-99.8" font-family="Times,serif" font-size="14.00" fill="#000000">LoadingSpinnerComponent</text>
</g>
<!-- LoadingSpinnerComponent&#45;&gt;UiLoadingModule -->
<g id="edge2" class="edge">
<title>LoadingSpinnerComponent&#45;&gt;UiLoadingModule</title>
<path fill="none" stroke="#000000" d="M1629.8557,-122.302C1629.8557,-140.2699 1629.8557,-165 1629.8557,-165 1629.8557,-165 944.2595,-165 944.2595,-165"/>
<polygon fill="#000000" stroke="#000000" points="944.2595,-161.5001 934.2595,-165 944.2594,-168.5001 944.2595,-161.5001"/>
</g>
<!-- LoadingFoldingCubeComponent -->
<g id="node3" class="node">
<title>LoadingFoldingCubeComponent</title>
<polygon fill="#ffffb3" stroke="#000000" points="1608.6052,-122 1407.3948,-122 1407.3948,-86 1608.6052,-86 1608.6052,-122"/>
<text text-anchor="middle" x="1508" y="-99.8" font-family="Times,serif" font-size="14.00" fill="#000000">LoadingFoldingCubeComponent</text>
</g>
<!-- LoadingFoldingCubeComponent&#45;&gt;UiLoadingModule -->
<g id="edge3" class="edge">
<title>LoadingFoldingCubeComponent&#45;&gt;UiLoadingModule</title>
<path fill="none" stroke="#000000" d="M1542.6009,-122.0352C1542.6009,-138.7344 1542.6009,-161 1542.6009,-161 1542.6009,-161 944.2174,-161 944.2174,-161"/>
<polygon fill="#000000" stroke="#000000" points="944.2174,-157.5001 934.2174,-161 944.2173,-164.5001 944.2174,-157.5001"/>
</g>
<!-- LoadingFadingCircleComponent -->
<g id="node4" class="node">
<title>LoadingFadingCircleComponent</title>
<polygon fill="#ffffb3" stroke="#000000" points="1389.5856,-122 1188.4144,-122 1188.4144,-86 1389.5856,-86 1389.5856,-122"/>
<text text-anchor="middle" x="1289" y="-99.8" font-family="Times,serif" font-size="14.00" fill="#000000">LoadingFadingCircleComponent</text>
</g>
<!-- LoadingFadingCircleComponent&#45;&gt;UiLoadingModule -->
<g id="edge4" class="edge">
<title>LoadingFadingCircleComponent&#45;&gt;UiLoadingModule</title>
<path fill="none" stroke="#000000" d="M1322.5143,-122.2819C1322.5143,-137.9478 1322.5143,-158 1322.5143,-158 1322.5143,-158 944.4886,-158 944.4886,-158"/>
<polygon fill="#000000" stroke="#000000" points="944.4887,-154.5001 934.4886,-158 944.4886,-161.5001 944.4887,-154.5001"/>
</g>
<!-- LoadingDoubleBounceComponent -->
<g id="node5" class="node">
<title>LoadingDoubleBounceComponent</title>
<polygon fill="#ffffb3" stroke="#000000" points="1169.9678,-122 958.0322,-122 958.0322,-86 1169.9678,-86 1169.9678,-122"/>
<text text-anchor="middle" x="1064" y="-99.8" font-family="Times,serif" font-size="14.00" fill="#000000">LoadingDoubleBounceComponent</text>
</g>
<!-- LoadingDoubleBounceComponent&#45;&gt;UiLoadingModule -->
<g id="edge5" class="edge">
<title>LoadingDoubleBounceComponent&#45;&gt;UiLoadingModule</title>
<path fill="none" stroke="#000000" d="M1028.5887,-122.1243C1028.5887,-136.7832 1028.5887,-155 1028.5887,-155 1028.5887,-155 944.2107,-155 944.2107,-155"/>
<polygon fill="#000000" stroke="#000000" points="944.2107,-151.5001 934.2107,-155 944.2106,-158.5001 944.2107,-151.5001"/>
</g>
<!-- LoadingDotComponent -->
<g id="node6" class="node">
<title>LoadingDotComponent</title>
<polygon fill="#ffffb3" stroke="#000000" points="940.4874,-122 791.5126,-122 791.5126,-86 940.4874,-86 940.4874,-122"/>
<text text-anchor="middle" x="866" y="-99.8" font-family="Times,serif" font-size="14.00" fill="#000000">LoadingDotComponent</text>
</g>
<!-- LoadingDotComponent&#45;&gt;UiLoadingModule -->
<g id="edge6" class="edge">
<title>LoadingDotComponent&#45;&gt;UiLoadingModule</title>
<path fill="none" stroke="#000000" d="M874,-122.1061C874,-122.1061 874,-140.991 874,-140.991"/>
<polygon fill="#000000" stroke="#000000" points="870.5001,-140.9909 874,-150.991 877.5001,-140.991 870.5001,-140.9909"/>
</g>
<!-- LoadingCubeGridComponent -->
<g id="node7" class="node">
<title>LoadingCubeGridComponent</title>
<polygon fill="#ffffb3" stroke="#000000" points="773.6993,-122 590.3007,-122 590.3007,-86 773.6993,-86 773.6993,-122"/>
<text text-anchor="middle" x="682" y="-99.8" font-family="Times,serif" font-size="14.00" fill="#000000">LoadingCubeGridComponent</text>
</g>
<!-- LoadingCubeGridComponent&#45;&gt;UiLoadingModule -->
<g id="edge7" class="edge">
<title>LoadingCubeGridComponent&#45;&gt;UiLoadingModule</title>
<path fill="none" stroke="#000000" d="M769.4746,-122.1243C769.4746,-136.7832 769.4746,-155 769.4746,-155 769.4746,-155 803.8028,-155 803.8028,-155"/>
<polygon fill="#000000" stroke="#000000" points="803.8028,-158.5001 813.8028,-155 803.8027,-151.5001 803.8028,-158.5001"/>
</g>
<!-- LoadingCubeComponent -->
<g id="node8" class="node">
<title>LoadingCubeComponent</title>
<polygon fill="#ffffb3" stroke="#000000" points="572.5421,-122 415.4579,-122 415.4579,-86 572.5421,-86 572.5421,-122"/>
<text text-anchor="middle" x="494" y="-99.8" font-family="Times,serif" font-size="14.00" fill="#000000">LoadingCubeComponent</text>
</g>
<!-- LoadingCubeComponent&#45;&gt;UiLoadingModule -->
<g id="edge8" class="edge">
<title>LoadingCubeComponent&#45;&gt;UiLoadingModule</title>
<path fill="none" stroke="#000000" d="M566.6457,-122.0091C566.6457,-138.0494 566.6457,-159 566.6457,-159 566.6457,-159 803.6434,-159 803.6434,-159"/>
<polygon fill="#000000" stroke="#000000" points="803.6434,-162.5001 813.6434,-159 803.6434,-155.5001 803.6434,-162.5001"/>
</g>
<!-- LoadingCircleComponent -->
<g id="node9" class="node">
<title>LoadingCircleComponent</title>
<polygon fill="#ffffb3" stroke="#000000" points="397.1979,-122 234.8021,-122 234.8021,-86 397.1979,-86 397.1979,-122"/>
<text text-anchor="middle" x="316" y="-99.8" font-family="Times,serif" font-size="14.00" fill="#000000">LoadingCircleComponent</text>
</g>
<!-- LoadingCircleComponent&#45;&gt;UiLoadingModule -->
<g id="edge9" class="edge">
<title>LoadingCircleComponent&#45;&gt;UiLoadingModule</title>
<path fill="none" stroke="#000000" d="M389.4739,-122.0225C389.4739,-139.3734 389.4739,-163 389.4739,-163 389.4739,-163 803.6141,-163 803.6141,-163"/>
<polygon fill="#000000" stroke="#000000" points="803.6141,-166.5001 813.6141,-163 803.6141,-159.5001 803.6141,-166.5001"/>
</g>
<!-- LoadingBounceComponent -->
<g id="node10" class="node">
<title>LoadingBounceComponent</title>
<polygon fill="#ffffb3" stroke="#000000" points="217.2562,-122 46.7438,-122 46.7438,-86 217.2562,-86 217.2562,-122"/>
<text text-anchor="middle" x="132" y="-99.8" font-family="Times,serif" font-size="14.00" fill="#000000">LoadingBounceComponent</text>
</g>
<!-- LoadingBounceComponent&#45;&gt;UiLoadingModule -->
<g id="edge10" class="edge">
<title>LoadingBounceComponent&#45;&gt;UiLoadingModule</title>
<path fill="none" stroke="#000000" d="M207.1395,-122.2222C207.1395,-140.8285 207.1395,-167 207.1395,-167 207.1395,-167 803.6444,-167 803.6444,-167"/>
<polygon fill="#000000" stroke="#000000" points="803.6445,-170.5001 813.6444,-167 803.6444,-163.5001 803.6445,-170.5001"/>
</g>
<!-- LoadingSpinnerRectComponent  -->
<g id="node12" class="node">
<title>LoadingSpinnerRectComponent </title>
<polygon fill="#fb8072" stroke="#000000" points="2027.1952,-252 1826.8048,-252 1826.8048,-216 2027.1952,-216 2027.1952,-252"/>
<text text-anchor="middle" x="1927" y="-229.8" font-family="Times,serif" font-size="14.00" fill="#000000">LoadingSpinnerRectComponent </text>
</g>
<!-- UiLoadingModule&#45;&gt;LoadingSpinnerRectComponent  -->
<g id="edge11" class="edge">
<title>UiLoadingModule&#45;&gt;LoadingSpinnerRectComponent </title>
<path fill="none" stroke="#000000" stroke-dasharray="5,2" d="M934.3543,-171C1157.027,-171 1919.625,-171 1919.625,-171 1919.625,-171 1919.625,-205.7778 1919.625,-205.7778"/>
<polygon fill="#000000" stroke="#000000" points="1916.1251,-205.7778 1919.625,-215.7778 1923.1251,-205.7778 1916.1251,-205.7778"/>
</g>
<!-- LoadingSpinnerComponent  -->
<g id="node13" class="node">
<title>LoadingSpinnerComponent </title>
<polygon fill="#fb8072" stroke="#000000" points="1808.5386,-252 1633.4614,-252 1633.4614,-216 1808.5386,-216 1808.5386,-252"/>
<text text-anchor="middle" x="1721" y="-229.8" font-family="Times,serif" font-size="14.00" fill="#000000">LoadingSpinnerComponent </text>
</g>
<!-- UiLoadingModule&#45;&gt;LoadingSpinnerComponent  -->
<g id="edge12" class="edge">
<title>UiLoadingModule&#45;&gt;LoadingSpinnerComponent </title>
<path fill="none" stroke="#000000" stroke-dasharray="5,2" d="M934.1898,-174C1126.8173,-174 1715.625,-174 1715.625,-174 1715.625,-174 1715.625,-205.998 1715.625,-205.998"/>
<polygon fill="#000000" stroke="#000000" points="1712.1251,-205.998 1715.625,-215.998 1719.1251,-205.9981 1712.1251,-205.998"/>
</g>
<!-- LoadingFoldingCubeComponent  -->
<g id="node14" class="node">
<title>LoadingFoldingCubeComponent </title>
<polygon fill="#fb8072" stroke="#000000" points="1615.1056,-252 1410.8944,-252 1410.8944,-216 1615.1056,-216 1615.1056,-252"/>
<text text-anchor="middle" x="1513" y="-229.8" font-family="Times,serif" font-size="14.00" fill="#000000">LoadingFoldingCubeComponent </text>
</g>
<!-- UiLoadingModule&#45;&gt;LoadingFoldingCubeComponent  -->
<g id="edge13" class="edge">
<title>UiLoadingModule&#45;&gt;LoadingFoldingCubeComponent </title>
<path fill="none" stroke="#000000" stroke-dasharray="5,2" d="M934.2653,-178C1086.894,-178 1476.6491,-178 1476.6491,-178 1476.6491,-178 1476.6491,-205.973 1476.6491,-205.973"/>
<polygon fill="#000000" stroke="#000000" points="1473.1492,-205.973 1476.6491,-215.973 1480.1492,-205.973 1473.1492,-205.973"/>
</g>
<!-- LoadingFadingCircleComponent  -->
<g id="node15" class="node">
<title>LoadingFadingCircleComponent </title>
<polygon fill="#fb8072" stroke="#000000" points="1392.086,-252 1187.914,-252 1187.914,-216 1392.086,-216 1392.086,-252"/>
<text text-anchor="middle" x="1290" y="-229.8" font-family="Times,serif" font-size="14.00" fill="#000000">LoadingFadingCircleComponent </text>
</g>
<!-- UiLoadingModule&#45;&gt;LoadingFadingCircleComponent  -->
<g id="edge14" class="edge">
<title>UiLoadingModule&#45;&gt;LoadingFadingCircleComponent </title>
<path fill="none" stroke="#000000" stroke-dasharray="5,2" d="M934.4475,-181C1042.0162,-181 1255.4857,-181 1255.4857,-181 1255.4857,-181 1255.4857,-205.7604 1255.4857,-205.7604"/>
<polygon fill="#000000" stroke="#000000" points="1251.9858,-205.7604 1255.4857,-215.7604 1258.9858,-205.7604 1251.9858,-205.7604"/>
</g>
<!-- LoadingDoubleBounceComponent  -->
<g id="node16" class="node">
<title>LoadingDoubleBounceComponent </title>
<polygon fill="#fb8072" stroke="#000000" points="1169.9683,-252 954.0317,-252 954.0317,-216 1169.9683,-216 1169.9683,-252"/>
<text text-anchor="middle" x="1062" y="-229.8" font-family="Times,serif" font-size="14.00" fill="#000000">LoadingDoubleBounceComponent </text>
</g>
<!-- UiLoadingModule&#45;&gt;LoadingDoubleBounceComponent  -->
<g id="edge15" class="edge">
<title>UiLoadingModule&#45;&gt;LoadingDoubleBounceComponent </title>
<path fill="none" stroke="#000000" stroke-dasharray="5,2" d="M934.3391,-184C1001.0346,-184 1099.1613,-184 1099.1613,-184 1099.1613,-184 1099.1613,-205.9489 1099.1613,-205.9489"/>
<polygon fill="#000000" stroke="#000000" points="1095.6614,-205.9488 1099.1613,-215.9489 1102.6614,-205.9489 1095.6614,-205.9488"/>
</g>
<!-- LoadingDotComponent  -->
<g id="node17" class="node">
<title>LoadingDotComponent </title>
<polygon fill="#fb8072" stroke="#000000" points="936.4882,-252 783.5118,-252 783.5118,-216 936.4882,-216 936.4882,-252"/>
<text text-anchor="middle" x="860" y="-229.8" font-family="Times,serif" font-size="14.00" fill="#000000">LoadingDotComponent </text>
</g>
<!-- UiLoadingModule&#45;&gt;LoadingDotComponent  -->
<g id="edge16" class="edge">
<title>UiLoadingModule&#45;&gt;LoadingDotComponent </title>
<path fill="none" stroke="#000000" stroke-dasharray="5,2" d="M874,-187.1061C874,-187.1061 874,-205.991 874,-205.991"/>
<polygon fill="#000000" stroke="#000000" points="870.5001,-205.9909 874,-215.991 877.5001,-205.991 870.5001,-205.9909"/>
</g>
<!-- LoadingCubeGridComponent  -->
<g id="node18" class="node">
<title>LoadingCubeGridComponent </title>
<polygon fill="#fb8072" stroke="#000000" points="765.1994,-252 578.8006,-252 578.8006,-216 765.1994,-216 765.1994,-252"/>
<text text-anchor="middle" x="672" y="-229.8" font-family="Times,serif" font-size="14.00" fill="#000000">LoadingCubeGridComponent </text>
</g>
<!-- UiLoadingModule&#45;&gt;LoadingCubeGridComponent  -->
<g id="edge17" class="edge">
<title>UiLoadingModule&#45;&gt;LoadingCubeGridComponent </title>
<path fill="none" stroke="#000000" stroke-dasharray="5,2" d="M813.8232,-183C756.1714,-183 677.875,-183 677.875,-183 677.875,-183 677.875,-205.8757 677.875,-205.8757"/>
<polygon fill="#000000" stroke="#000000" points="674.3751,-205.8757 677.875,-215.8757 681.3751,-205.8757 674.3751,-205.8757"/>
</g>
<!-- LoadingCubeComponent  -->
<g id="node19" class="node">
<title>LoadingCubeComponent </title>
<polygon fill="#fb8072" stroke="#000000" points="560.5414,-252 399.4586,-252 399.4586,-216 560.5414,-216 560.5414,-252"/>
<text text-anchor="middle" x="480" y="-229.8" font-family="Times,serif" font-size="14.00" fill="#000000">LoadingCubeComponent </text>
</g>
<!-- UiLoadingModule&#45;&gt;LoadingCubeComponent  -->
<g id="edge18" class="edge">
<title>UiLoadingModule&#45;&gt;LoadingCubeComponent </title>
<path fill="none" stroke="#000000" stroke-dasharray="5,2" d="M813.668,-179C705.0703,-179 487.875,-179 487.875,-179 487.875,-179 487.875,-205.9909 487.875,-205.9909"/>
<polygon fill="#000000" stroke="#000000" points="484.3751,-205.9909 487.875,-215.9909 491.3751,-205.991 484.3751,-205.9909"/>
</g>
<!-- LoadingCircleComponent  -->
<g id="node20" class="node">
<title>LoadingCircleComponent </title>
<polygon fill="#fb8072" stroke="#000000" points="381.6981,-252 216.3019,-252 216.3019,-216 381.6981,-216 381.6981,-252"/>
<text text-anchor="middle" x="299" y="-229.8" font-family="Times,serif" font-size="14.00" fill="#000000">LoadingCircleComponent </text>
</g>
<!-- UiLoadingModule&#45;&gt;LoadingCircleComponent  -->
<g id="edge19" class="edge">
<title>UiLoadingModule&#45;&gt;LoadingCircleComponent </title>
<path fill="none" stroke="#000000" stroke-dasharray="5,2" d="M813.7362,-175C667.9927,-175 308.375,-175 308.375,-175 308.375,-175 308.375,-205.9775 308.375,-205.9775"/>
<polygon fill="#000000" stroke="#000000" points="304.8751,-205.9774 308.375,-215.9775 311.8751,-205.9775 304.8751,-205.9774"/>
</g>
<!-- LoadingBounceComponent  -->
<g id="node21" class="node">
<title>LoadingBounceComponent </title>
<polygon fill="#fb8072" stroke="#000000" points="198.2562,-252 23.7438,-252 23.7438,-216 198.2562,-216 198.2562,-252"/>
<text text-anchor="middle" x="111" y="-229.8" font-family="Times,serif" font-size="14.00" fill="#000000">LoadingBounceComponent </text>
</g>
<!-- UiLoadingModule&#45;&gt;LoadingBounceComponent  -->
<g id="edge20" class="edge">
<title>UiLoadingModule&#45;&gt;LoadingBounceComponent </title>
<path fill="none" stroke="#000000" stroke-dasharray="5,2" d="M813.7619,-171C635.4041,-171 122.375,-171 122.375,-171 122.375,-171 122.375,-205.7778 122.375,-205.7778"/>
<polygon fill="#000000" stroke="#000000" points="118.8751,-205.7778 122.375,-215.7778 125.8751,-205.7778 118.8751,-205.7778"/>
</g>
</g>
</svg>
