<?xml version="1.0" encoding="UTF-8" standalone="no"?>
<!DOCTYPE svg PUBLIC "-//W3C//DTD SVG 1.1//EN"
 "http://www.w3.org/Graphics/SVG/1.1/DTD/svg11.dtd">
<!-- Generated by graphviz version 2.40.1 (20161225.0304)
 -->
<!-- Title: dependencies Pages: 1 -->
<svg width="1540pt" height="211pt"
 viewBox="0.00 0.00 1540.00 211.00" xmlns="http://www.w3.org/2000/svg" xmlns:xlink="http://www.w3.org/1999/xlink">
<g id="graph0" class="graph" transform="scale(1 1) rotate(0) translate(4 207)">
<title>dependencies</title>
<polygon fill="#ffffff" stroke="transparent" points="-4,4 -4,-207 1536,-207 1536,4 -4,4"/>
<text text-anchor="start" x="745.0091" y="-42.4" font-family="sans-serif" font-weight="bold" font-size="14.00" fill="#000000">Legend</text>
<polygon fill="#ffffb3" stroke="transparent" points="532,-10 532,-30 552,-30 552,-10 532,-10"/>
<text text-anchor="start" x="555.629" y="-15.4" font-family="sans-serif" font-size="14.00" fill="#000000"> &#160;Declarations</text>
<polygon fill="#8dd3c7" stroke="transparent" points="645,-10 645,-30 665,-30 665,-10 645,-10"/>
<text text-anchor="start" x="668.7251" y="-15.4" font-family="sans-serif" font-size="14.00" fill="#000000"> &#160;Module</text>
<polygon fill="#80b1d3" stroke="transparent" points="731,-10 731,-30 751,-30 751,-10 731,-10"/>
<text text-anchor="start" x="754.7812" y="-15.4" font-family="sans-serif" font-size="14.00" fill="#000000"> &#160;Bootstrap</text>
<polygon fill="#fdb462" stroke="transparent" points="828,-10 828,-30 848,-30 848,-10 828,-10"/>
<text text-anchor="start" x="851.6732" y="-15.4" font-family="sans-serif" font-size="14.00" fill="#000000"> &#160;Providers</text>
<polygon fill="#fb8072" stroke="transparent" points="924,-10 924,-30 944,-30 944,-10 924,-10"/>
<text text-anchor="start" x="947.7258" y="-15.4" font-family="sans-serif" font-size="14.00" fill="#000000"> &#160;Exports</text>
<g id="clust1" class="cluster">
<title>cluster_PatientModule</title>
<polygon fill="none" stroke="#000000" stroke-dasharray="1,5" points="8,-70 8,-195 1524,-195 1524,-70 8,-70"/>
</g>
<g id="clust2" class="cluster">
<title>cluster_PatientModule_declarations</title>
<polygon fill="none" stroke="#000000" points="479,-78 479,-130 1516,-130 1516,-78 479,-78"/>
</g>
<g id="clust9" class="cluster">
<title>cluster_PatientModule_imports</title>
<polygon fill="none" stroke="#000000" points="210,-78 210,-130 471,-130 471,-78 210,-78"/>
</g>
<g id="clust12" class="cluster">
<title>cluster_PatientModule_providers</title>
<polygon fill="none" stroke="#000000" points="16,-78 16,-130 202,-130 202,-78 16,-78"/>
</g>
<!-- AddProfileComponent -->
<g id="node1" class="node">
<title>AddProfileComponent</title>
<polygon fill="#ffffb3" stroke="#000000" points="1507.5393,-122 1364.4607,-122 1364.4607,-86 1507.5393,-86 1507.5393,-122"/>
<text text-anchor="middle" x="1436" y="-99.8" font-family="Times,serif" font-size="14.00" fill="#000000">AddProfileComponent</text>
</g>
<!-- PatientModule -->
<g id="node7" class="node">
<title>PatientModule</title>
<polygon fill="#8dd3c7" stroke="#000000" points="778.4344,-187 775.4344,-191 754.4344,-191 751.4344,-187 679.5656,-187 679.5656,-151 778.4344,-151 778.4344,-187"/>
<text text-anchor="middle" x="729" y="-164.8" font-family="Times,serif" font-size="14.00" fill="#000000">PatientModule</text>
</g>
<!-- AddProfileComponent&#45;&gt;PatientModule -->
<g id="edge1" class="edge">
<title>AddProfileComponent&#45;&gt;PatientModule</title>
<path fill="none" stroke="#000000" d="M1436,-122.0109C1436,-144.4852 1436,-180 1436,-180 1436,-180 788.4339,-180 788.4339,-180"/>
<polygon fill="#000000" stroke="#000000" points="788.4339,-176.5001 778.4339,-180 788.4338,-183.5001 788.4339,-176.5001"/>
</g>
<!-- EditProfileComponent -->
<g id="node2" class="node">
<title>EditProfileComponent</title>
<polygon fill="#ffffb3" stroke="#000000" points="1346.266,-122 1203.734,-122 1203.734,-86 1346.266,-86 1346.266,-122"/>
<text text-anchor="middle" x="1275" y="-99.8" font-family="Times,serif" font-size="14.00" fill="#000000">EditProfileComponent</text>
</g>
<!-- EditProfileComponent&#45;&gt;PatientModule -->
<g id="edge2" class="edge">
<title>EditProfileComponent&#45;&gt;PatientModule</title>
<path fill="none" stroke="#000000" d="M1275,-122.1289C1275,-142.5724 1275,-173 1275,-173 1275,-173 788.4168,-173 788.4168,-173"/>
<polygon fill="#000000" stroke="#000000" points="788.4169,-169.5001 778.4168,-173 788.4168,-176.5001 788.4169,-169.5001"/>
</g>
<!-- ProfileDetailsComponent -->
<g id="node3" class="node">
<title>ProfileDetailsComponent</title>
<polygon fill="#ffffb3" stroke="#000000" points="1185.5842,-122 1026.4158,-122 1026.4158,-86 1185.5842,-86 1185.5842,-122"/>
<text text-anchor="middle" x="1106" y="-99.8" font-family="Times,serif" font-size="14.00" fill="#000000">ProfileDetailsComponent</text>
</g>
<!-- ProfileDetailsComponent&#45;&gt;PatientModule -->
<g id="edge3" class="edge">
<title>ProfileDetailsComponent&#45;&gt;PatientModule</title>
<path fill="none" stroke="#000000" d="M1106,-122.2667C1106,-140.5552 1106,-166 1106,-166 1106,-166 788.2862,-166 788.2862,-166"/>
<polygon fill="#000000" stroke="#000000" points="788.2862,-162.5001 778.2862,-166 788.2861,-169.5001 788.2862,-162.5001"/>
</g>
<!-- AccessRquestListComponent -->
<g id="node4" class="node">
<title>AccessRquestListComponent</title>
<polygon fill="#ffffb3" stroke="#000000" points="1008.6372,-122 827.3628,-122 827.3628,-86 1008.6372,-86 1008.6372,-122"/>
<text text-anchor="middle" x="918" y="-99.8" font-family="Times,serif" font-size="14.00" fill="#000000">AccessRquestListComponent</text>
</g>
<!-- AccessRquestListComponent&#45;&gt;PatientModule -->
<g id="edge4" class="edge">
<title>AccessRquestListComponent&#45;&gt;PatientModule</title>
<path fill="none" stroke="#000000" d="M918,-122.0091C918,-138.0494 918,-159 918,-159 918,-159 788.6575,-159 788.6575,-159"/>
<polygon fill="#000000" stroke="#000000" points="788.6576,-155.5001 778.6575,-159 788.6575,-162.5001 788.6576,-155.5001"/>
</g>
<!-- AppointmentsComponent -->
<g id="node5" class="node">
<title>AppointmentsComponent</title>
<polygon fill="#ffffb3" stroke="#000000" points="809.161,-122 648.839,-122 648.839,-86 809.161,-86 809.161,-122"/>
<text text-anchor="middle" x="729" y="-99.8" font-family="Times,serif" font-size="14.00" fill="#000000">AppointmentsComponent</text>
</g>
<!-- AppointmentsComponent&#45;&gt;PatientModule -->
<g id="edge5" class="edge">
<title>AppointmentsComponent&#45;&gt;PatientModule</title>
<path fill="none" stroke="#000000" d="M729,-122.1061C729,-122.1061 729,-140.991 729,-140.991"/>
<polygon fill="#000000" stroke="#000000" points="725.5001,-140.9909 729,-150.991 732.5001,-140.991 725.5001,-140.9909"/>
</g>
<!-- FileUploadComponent -->
<g id="node6" class="node">
<title>FileUploadComponent</title>
<polygon fill="#ffffb3" stroke="#000000" points="631.323,-122 486.677,-122 486.677,-86 631.323,-86 631.323,-122"/>
<text text-anchor="middle" x="559" y="-99.8" font-family="Times,serif" font-size="14.00" fill="#000000">FileUploadComponent</text>
</g>
<!-- FileUploadComponent&#45;&gt;PatientModule -->
<g id="edge6" class="edge">
<title>FileUploadComponent&#45;&gt;PatientModule</title>
<path fill="none" stroke="#000000" d="M559,-122.0091C559,-138.0494 559,-159 559,-159 559,-159 669.372,-159 669.372,-159"/>
<polygon fill="#000000" stroke="#000000" points="669.372,-162.5001 679.372,-159 669.3719,-155.5001 669.372,-162.5001"/>
</g>
<!-- MaterialModule -->
<g id="node8" class="node">
<title>MaterialModule</title>
<polygon fill="#8dd3c7" stroke="#000000" points="463.4706,-122 460.4706,-126 439.4706,-126 436.4706,-122 356.5294,-122 356.5294,-86 463.4706,-86 463.4706,-122"/>
<text text-anchor="middle" x="410" y="-99.8" font-family="Times,serif" font-size="14.00" fill="#000000">MaterialModule</text>
</g>
<!-- MaterialModule&#45;&gt;PatientModule -->
<g id="edge7" class="edge">
<title>MaterialModule&#45;&gt;PatientModule</title>
<path fill="none" stroke="#000000" d="M410,-122.2667C410,-140.5552 410,-166 410,-166 410,-166 669.5063,-166 669.5063,-166"/>
<polygon fill="#000000" stroke="#000000" points="669.5063,-169.5001 679.5063,-166 669.5062,-162.5001 669.5063,-169.5001"/>
</g>
<!-- UiLoadingModule -->
<g id="node9" class="node">
<title>UiLoadingModule</title>
<polygon fill="#8dd3c7" stroke="#000000" points="338.205,-122 335.205,-126 314.205,-126 311.205,-122 217.795,-122 217.795,-86 338.205,-86 338.205,-122"/>
<text text-anchor="middle" x="278" y="-99.8" font-family="Times,serif" font-size="14.00" fill="#000000">UiLoadingModule</text>
</g>
<!-- UiLoadingModule&#45;&gt;PatientModule -->
<g id="edge8" class="edge">
<title>UiLoadingModule&#45;&gt;PatientModule</title>
<path fill="none" stroke="#000000" d="M278,-122.1289C278,-142.5724 278,-173 278,-173 278,-173 669.445,-173 669.445,-173"/>
<polygon fill="#000000" stroke="#000000" points="669.445,-176.5001 679.445,-173 669.445,-169.5001 669.445,-176.5001"/>
</g>
<!-- PatientDataService -->
<g id="node10" class="node">
<title>PatientDataService</title>
<ellipse fill="#fdb462" stroke="#000000" cx="109" cy="-104" rx="85.0831" ry="18"/>
<text text-anchor="middle" x="109" y="-99.8" font-family="Times,serif" font-size="14.00" fill="#000000">PatientDataService</text>
</g>
<!-- PatientDataService&#45;&gt;PatientModule -->
<g id="edge9" class="edge">
<title>PatientDataService&#45;&gt;PatientModule</title>
<path fill="none" stroke="#000000" d="M109,-122.0109C109,-144.4852 109,-180 109,-180 109,-180 669.5714,-180 669.5714,-180"/>
<polygon fill="#000000" stroke="#000000" points="669.5715,-183.5001 679.5714,-180 669.5714,-176.5001 669.5715,-183.5001"/>
</g>
</g>
</svg>
