<?xml version="1.0" encoding="UTF-8" standalone="no"?>
<!DOCTYPE svg PUBLIC "-//W3C//DTD SVG 1.1//EN"
 "http://www.w3.org/Graphics/SVG/1.1/DTD/svg11.dtd">
<!-- Generated by graphviz version 2.40.1 (20161225.0304)
 -->
<!-- Title: dependencies Pages: 1 -->
<svg width="1486pt" height="284pt"
 viewBox="0.00 0.00 1486.00 284.00" xmlns="http://www.w3.org/2000/svg" xmlns:xlink="http://www.w3.org/1999/xlink">
<g id="graph0" class="graph" transform="scale(1 1) rotate(0) translate(4 280)">
<title>dependencies</title>
<polygon fill="#ffffff" stroke="transparent" points="-4,4 -4,-280 1482,-280 1482,4 -4,4"/>
<text text-anchor="start" x="718.0091" y="-42.4" font-family="sans-serif" font-weight="bold" font-size="14.00" fill="#000000">Legend</text>
<polygon fill="#ffffb3" stroke="transparent" points="505,-10 505,-30 525,-30 525,-10 505,-10"/>
<text text-anchor="start" x="528.629" y="-15.4" font-family="sans-serif" font-size="14.00" fill="#000000"> &#160;Declarations</text>
<polygon fill="#8dd3c7" stroke="transparent" points="618,-10 618,-30 638,-30 638,-10 618,-10"/>
<text text-anchor="start" x="641.7251" y="-15.4" font-family="sans-serif" font-size="14.00" fill="#000000"> &#160;Module</text>
<polygon fill="#80b1d3" stroke="transparent" points="704,-10 704,-30 724,-30 724,-10 704,-10"/>
<text text-anchor="start" x="727.7812" y="-15.4" font-family="sans-serif" font-size="14.00" fill="#000000"> &#160;Bootstrap</text>
<polygon fill="#fdb462" stroke="transparent" points="801,-10 801,-30 821,-30 821,-10 801,-10"/>
<text text-anchor="start" x="824.6732" y="-15.4" font-family="sans-serif" font-size="14.00" fill="#000000"> &#160;Providers</text>
<polygon fill="#fb8072" stroke="transparent" points="897,-10 897,-30 917,-30 917,-10 897,-10"/>
<text text-anchor="start" x="920.7258" y="-15.4" font-family="sans-serif" font-size="14.00" fill="#000000"> &#160;Exports</text>
<g id="clust1" class="cluster">
<title>cluster_AppModule</title>
<polygon fill="none" stroke="#000000" stroke-dasharray="1,5" points="8,-70 8,-268 1470,-268 1470,-70 8,-70"/>
</g>
<g id="clust2" class="cluster">
<title>cluster_AppModule_declarations</title>
<polygon fill="none" stroke="#000000" points="906,-78 906,-130 1462,-130 1462,-78 906,-78"/>
</g>
<g id="clust7" class="cluster">
<title>cluster_AppModule_imports</title>
<polygon fill="none" stroke="#000000" points="386,-78 386,-130 898,-130 898,-78 386,-78"/>
</g>
<g id="clust9" class="cluster">
<title>cluster_AppModule_bootstrap</title>
<polygon fill="none" stroke="#000000" points="696,-208 696,-260 820,-260 820,-208 696,-208"/>
</g>
<g id="clust10" class="cluster">
<title>cluster_AppModule_providers</title>
<polygon fill="none" stroke="#000000" points="16,-78 16,-130 378,-130 378,-78 16,-78"/>
</g>
<!-- AppComponent -->
<g id="node1" class="node">
<title>AppComponent</title>
<polygon fill="#ffffb3" stroke="#000000" points="1453.9399,-122 1348.0601,-122 1348.0601,-86 1453.9399,-86 1453.9399,-122"/>
<text text-anchor="middle" x="1401" y="-99.8" font-family="Times,serif" font-size="14.00" fill="#000000">AppComponent</text>
</g>
<!-- AppModule -->
<g id="node5" class="node">
<title>AppModule</title>
<polygon fill="#8dd3c7" stroke="#000000" points="799.6571,-187 796.6571,-191 775.6571,-191 772.6571,-187 716.3429,-187 716.3429,-151 799.6571,-151 799.6571,-187"/>
<text text-anchor="middle" x="758" y="-164.8" font-family="Times,serif" font-size="14.00" fill="#000000">AppModule</text>
</g>
<!-- AppComponent&#45;&gt;AppModule -->
<g id="edge1" class="edge">
<title>AppComponent&#45;&gt;AppModule</title>
<path fill="none" stroke="#000000" d="M1401,-122.0109C1401,-144.4852 1401,-180 1401,-180 1401,-180 809.6936,-180 809.6936,-180"/>
<polygon fill="#000000" stroke="#000000" points="809.6936,-176.5001 799.6936,-180 809.6936,-183.5001 809.6936,-176.5001"/>
</g>
<!-- HomeComponent -->
<g id="node2" class="node">
<title>HomeComponent</title>
<polygon fill="#ffffb3" stroke="#000000" points="1330.5451,-122 1215.4549,-122 1215.4549,-86 1330.5451,-86 1330.5451,-122"/>
<text text-anchor="middle" x="1273" y="-99.8" font-family="Times,serif" font-size="14.00" fill="#000000">HomeComponent</text>
</g>
<!-- HomeComponent&#45;&gt;AppModule -->
<g id="edge2" class="edge">
<title>HomeComponent&#45;&gt;AppModule</title>
<path fill="none" stroke="#000000" d="M1273,-122.1289C1273,-142.5724 1273,-173 1273,-173 1273,-173 809.7084,-173 809.7084,-173"/>
<polygon fill="#000000" stroke="#000000" points="809.7084,-169.5001 799.7084,-173 809.7083,-176.5001 809.7084,-169.5001"/>
</g>
<!-- DoctorsListComponent -->
<g id="node3" class="node">
<title>DoctorsListComponent</title>
<polygon fill="#ffffb3" stroke="#000000" points="1197.9284,-122 1050.0716,-122 1050.0716,-86 1197.9284,-86 1197.9284,-122"/>
<text text-anchor="middle" x="1124" y="-99.8" font-family="Times,serif" font-size="14.00" fill="#000000">DoctorsListComponent</text>
</g>
<!-- DoctorsListComponent&#45;&gt;AppModule -->
<g id="edge3" class="edge">
<title>DoctorsListComponent&#45;&gt;AppModule</title>
<path fill="none" stroke="#000000" d="M1124,-122.2667C1124,-140.5552 1124,-166 1124,-166 1124,-166 809.9849,-166 809.9849,-166"/>
<polygon fill="#000000" stroke="#000000" points="809.9849,-162.5001 799.9849,-166 809.9848,-169.5001 809.9849,-162.5001"/>
</g>
<!-- FooterComponent -->
<g id="node4" class="node">
<title>FooterComponent</title>
<polygon fill="#ffffb3" stroke="#000000" points="1031.8809,-122 914.1191,-122 914.1191,-86 1031.8809,-86 1031.8809,-122"/>
<text text-anchor="middle" x="973" y="-99.8" font-family="Times,serif" font-size="14.00" fill="#000000">FooterComponent</text>
</g>
<!-- FooterComponent&#45;&gt;AppModule -->
<g id="edge4" class="edge">
<title>FooterComponent&#45;&gt;AppModule</title>
<path fill="none" stroke="#000000" d="M973,-122.0091C973,-138.0494 973,-159 973,-159 973,-159 809.7091,-159 809.7091,-159"/>
<polygon fill="#000000" stroke="#000000" points="809.7091,-155.5001 799.7091,-159 809.7091,-162.5001 809.7091,-155.5001"/>
</g>
<!-- AppComponent  -->
<g id="node10" class="node">
<title>AppComponent </title>
<polygon fill="#80b1d3" stroke="#000000" points="812.439,-252 703.561,-252 703.561,-216 812.439,-216 812.439,-252"/>
<text text-anchor="middle" x="758" y="-229.8" font-family="Times,serif" font-size="14.00" fill="#000000">AppComponent </text>
</g>
<!-- AppModule&#45;&gt;AppComponent  -->
<g id="edge9" class="edge">
<title>AppModule&#45;&gt;AppComponent </title>
<path fill="none" stroke="#000000" stroke-dasharray="1,5" d="M758,-187.1061C758,-187.1061 758,-205.991 758,-205.991"/>
<polygon fill="#000000" stroke="#000000" points="754.5001,-205.9909 758,-215.991 761.5001,-205.991 754.5001,-205.9909"/>
</g>
<!-- AppRoutingModule -->
<g id="node6" class="node">
<title>AppRoutingModule</title>
<polygon fill="#8dd3c7" stroke="#000000" points="890.2744,-122 887.2744,-126 866.2744,-126 863.2744,-122 761.7256,-122 761.7256,-86 890.2744,-86 890.2744,-122"/>
<text text-anchor="middle" x="826" y="-99.8" font-family="Times,serif" font-size="14.00" fill="#000000">AppRoutingModule</text>
</g>
<!-- AppRoutingModule&#45;&gt;AppModule -->
<g id="edge5" class="edge">
<title>AppRoutingModule&#45;&gt;AppModule</title>
<path fill="none" stroke="#000000" d="M780.7206,-122.1061C780.7206,-122.1061 780.7206,-140.991 780.7206,-140.991"/>
<polygon fill="#000000" stroke="#000000" points="777.2206,-140.9909 780.7206,-150.991 784.2206,-140.991 777.2206,-140.9909"/>
</g>
<!-- MaterialModule -->
<g id="node7" class="node">
<title>MaterialModule</title>
<polygon fill="#8dd3c7" stroke="#000000" points="743.4706,-122 740.4706,-126 719.4706,-126 716.4706,-122 636.5294,-122 636.5294,-86 743.4706,-86 743.4706,-122"/>
<text text-anchor="middle" x="690" y="-99.8" font-family="Times,serif" font-size="14.00" fill="#000000">MaterialModule</text>
</g>
<!-- MaterialModule&#45;&gt;AppModule -->
<g id="edge6" class="edge">
<title>MaterialModule&#45;&gt;AppModule</title>
<path fill="none" stroke="#000000" d="M729.8285,-122.1061C729.8285,-122.1061 729.8285,-140.991 729.8285,-140.991"/>
<polygon fill="#000000" stroke="#000000" points="726.3286,-140.9909 729.8285,-150.991 733.3286,-140.991 726.3286,-140.9909"/>
</g>
<!-- UiLoadingModule -->
<g id="node8" class="node">
<title>UiLoadingModule</title>
<polygon fill="#8dd3c7" stroke="#000000" points="618.205,-122 615.205,-126 594.205,-126 591.205,-122 497.795,-122 497.795,-86 618.205,-86 618.205,-122"/>
<text text-anchor="middle" x="558" y="-99.8" font-family="Times,serif" font-size="14.00" fill="#000000">UiLoadingModule</text>
</g>
<!-- UiLoadingModule&#45;&gt;AppModule -->
<g id="edge7" class="edge">
<title>UiLoadingModule&#45;&gt;AppModule</title>
<path fill="none" stroke="#000000" d="M558,-122.0091C558,-138.0494 558,-159 558,-159 558,-159 706.0734,-159 706.0734,-159"/>
<polygon fill="#000000" stroke="#000000" points="706.0735,-162.5001 716.0734,-159 706.0734,-155.5001 706.0735,-162.5001"/>
</g>
<!-- CoreModule -->
<g id="node9" class="node">
<title>CoreModule</title>
<polygon fill="#8dd3c7" stroke="#000000" points="480.2619,-122 477.2619,-126 456.2619,-126 453.2619,-122 393.7381,-122 393.7381,-86 480.2619,-86 480.2619,-122"/>
<text text-anchor="middle" x="437" y="-99.8" font-family="Times,serif" font-size="14.00" fill="#000000">CoreModule</text>
</g>
<!-- CoreModule&#45;&gt;AppModule -->
<g id="edge8" class="edge">
<title>CoreModule&#45;&gt;AppModule</title>
<path fill="none" stroke="#000000" d="M437,-122.2667C437,-140.5552 437,-166 437,-166 437,-166 706.0349,-166 706.0349,-166"/>
<polygon fill="#000000" stroke="#000000" points="706.0349,-169.5001 716.0349,-166 706.0348,-162.5001 706.0349,-169.5001"/>
</g>
<!-- TockenInterceptor -->
<g id="node11" class="node">
<title>TockenInterceptor</title>
<ellipse fill="#fdb462" stroke="#000000" cx="288" cy="-104" rx="82.2044" ry="18"/>
<text text-anchor="middle" x="288" y="-99.8" font-family="Times,serif" font-size="14.00" fill="#000000">TockenInterceptor</text>
</g>
<!-- TockenInterceptor&#45;&gt;AppModule -->
<g id="edge10" class="edge">
<title>TockenInterceptor&#45;&gt;AppModule</title>
<path fill="none" stroke="#000000" d="M288,-122.1289C288,-142.5724 288,-173 288,-173 288,-173 706.2906,-173 706.2906,-173"/>
<polygon fill="#000000" stroke="#000000" points="706.2907,-176.5001 716.2906,-173 706.2906,-169.5001 706.2907,-176.5001"/>
</g>
<!-- MessagingService -->
<g id="node12" class="node">
<title>MessagingService</title>
<ellipse fill="#fdb462" stroke="#000000" cx="106" cy="-104" rx="81.6596" ry="18"/>
<text text-anchor="middle" x="106" y="-99.8" font-family="Times,serif" font-size="14.00" fill="#000000">MessagingService</text>
</g>
<!-- MessagingService&#45;&gt;AppModule -->
<g id="edge11" class="edge">
<title>MessagingService&#45;&gt;AppModule</title>
<path fill="none" stroke="#000000" d="M106,-122.0109C106,-144.4852 106,-180 106,-180 106,-180 706.2226,-180 706.2226,-180"/>
<polygon fill="#000000" stroke="#000000" points="706.2227,-183.5001 716.2226,-180 706.2226,-176.5001 706.2227,-183.5001"/>
</g>
</g>
</svg>
