<?xml version="1.0" encoding="UTF-8" standalone="no"?>
<!DOCTYPE svg PUBLIC "-//W3C//DTD SVG 1.1//EN"
 "http://www.w3.org/Graphics/SVG/1.1/DTD/svg11.dtd">
<!-- Generated by graphviz version 2.40.1 (20161225.0304)
 -->
<!-- Title: dependencies Pages: 1 -->
<svg width="861pt" height="211pt"
 viewBox="0.00 0.00 861.00 211.00" xmlns="http://www.w3.org/2000/svg" xmlns:xlink="http://www.w3.org/1999/xlink">
<g id="graph0" class="graph" transform="scale(1 1) rotate(0) translate(4 207)">
<title>dependencies</title>
<polygon fill="#ffffff" stroke="transparent" points="-4,4 -4,-207 857,-207 857,4 -4,4"/>
<text text-anchor="start" x="405.5091" y="-42.4" font-family="sans-serif" font-weight="bold" font-size="14.00" fill="#000000">Legend</text>
<polygon fill="#ffffb3" stroke="transparent" points="192.5,-10 192.5,-30 212.5,-30 212.5,-10 192.5,-10"/>
<text text-anchor="start" x="216.129" y="-15.4" font-family="sans-serif" font-size="14.00" fill="#000000"> &#160;Declarations</text>
<polygon fill="#8dd3c7" stroke="transparent" points="305.5,-10 305.5,-30 325.5,-30 325.5,-10 305.5,-10"/>
<text text-anchor="start" x="329.2251" y="-15.4" font-family="sans-serif" font-size="14.00" fill="#000000"> &#160;Module</text>
<polygon fill="#80b1d3" stroke="transparent" points="391.5,-10 391.5,-30 411.5,-30 411.5,-10 391.5,-10"/>
<text text-anchor="start" x="415.2812" y="-15.4" font-family="sans-serif" font-size="14.00" fill="#000000"> &#160;Bootstrap</text>
<polygon fill="#fdb462" stroke="transparent" points="488.5,-10 488.5,-30 508.5,-30 508.5,-10 488.5,-10"/>
<text text-anchor="start" x="512.1732" y="-15.4" font-family="sans-serif" font-size="14.00" fill="#000000"> &#160;Providers</text>
<polygon fill="#fb8072" stroke="transparent" points="584.5,-10 584.5,-30 604.5,-30 604.5,-10 584.5,-10"/>
<text text-anchor="start" x="608.2258" y="-15.4" font-family="sans-serif" font-size="14.00" fill="#000000"> &#160;Exports</text>
<g id="clust1" class="cluster">
<title>cluster_CoreModule</title>
<polygon fill="none" stroke="#000000" stroke-dasharray="1,5" points="8,-70 8,-195 845,-195 845,-70 8,-70"/>
</g>
<g id="clust2" class="cluster">
<title>cluster_CoreModule_declarations</title>
<polygon fill="none" stroke="#000000" points="531,-78 531,-130 837,-130 837,-78 531,-78"/>
</g>
<g id="clust5" class="cluster">
<title>cluster_CoreModule_imports</title>
<polygon fill="none" stroke="#000000" points="156,-78 156,-130 523,-130 523,-78 156,-78"/>
</g>
<g id="clust8" class="cluster">
<title>cluster_CoreModule_providers</title>
<polygon fill="none" stroke="#000000" points="16,-78 16,-130 148,-130 148,-78 16,-78"/>
</g>
<!-- DoctorListComponent -->
<g id="node1" class="node">
<title>DoctorListComponent</title>
<polygon fill="#ffffb3" stroke="#000000" points="828.9832,-122 687.0168,-122 687.0168,-86 828.9832,-86 828.9832,-122"/>
<text text-anchor="middle" x="758" y="-99.8" font-family="Times,serif" font-size="14.00" fill="#000000">DoctorListComponent</text>
</g>
<!-- CoreModule -->
<g id="node3" class="node">
<title>CoreModule</title>
<polygon fill="#8dd3c7" stroke="#000000" points="505.2619,-187 502.2619,-191 481.2619,-191 478.2619,-187 418.7381,-187 418.7381,-151 505.2619,-151 505.2619,-187"/>
<text text-anchor="middle" x="462" y="-164.8" font-family="Times,serif" font-size="14.00" fill="#000000">CoreModule</text>
</g>
<!-- DoctorListComponent&#45;&gt;CoreModule -->
<g id="edge1" class="edge">
<title>DoctorListComponent&#45;&gt;CoreModule</title>
<path fill="none" stroke="#000000" d="M758,-122.2843C758,-143.3211 758,-175 758,-175 758,-175 515.3579,-175 515.3579,-175"/>
<polygon fill="#000000" stroke="#000000" points="515.358,-171.5001 505.3579,-175 515.3579,-178.5001 515.358,-171.5001"/>
</g>
<!-- BookingComponent -->
<g id="node2" class="node">
<title>BookingComponent</title>
<polygon fill="#ffffb3" stroke="#000000" points="668.5603,-122 539.4397,-122 539.4397,-86 668.5603,-86 668.5603,-122"/>
<text text-anchor="middle" x="604" y="-99.8" font-family="Times,serif" font-size="14.00" fill="#000000">BookingComponent</text>
</g>
<!-- BookingComponent&#45;&gt;CoreModule -->
<g id="edge2" class="edge">
<title>BookingComponent&#45;&gt;CoreModule</title>
<path fill="none" stroke="#000000" d="M604,-122.0225C604,-139.3734 604,-163 604,-163 604,-163 515.3763,-163 515.3763,-163"/>
<polygon fill="#000000" stroke="#000000" points="515.3763,-159.5001 505.3763,-163 515.3762,-166.5001 515.3763,-159.5001"/>
</g>
<!-- MaterialModule -->
<g id="node4" class="node">
<title>MaterialModule</title>
<polygon fill="#8dd3c7" stroke="#000000" points="515.4706,-122 512.4706,-126 491.4706,-126 488.4706,-122 408.5294,-122 408.5294,-86 515.4706,-86 515.4706,-122"/>
<text text-anchor="middle" x="462" y="-99.8" font-family="Times,serif" font-size="14.00" fill="#000000">MaterialModule</text>
</g>
<!-- MaterialModule&#45;&gt;CoreModule -->
<g id="edge3" class="edge">
<title>MaterialModule&#45;&gt;CoreModule</title>
<path fill="none" stroke="#000000" d="M447.5397,-122.1061C447.5397,-122.1061 447.5397,-140.991 447.5397,-140.991"/>
<polygon fill="#000000" stroke="#000000" points="444.0398,-140.9909 447.5397,-150.991 451.0398,-140.991 444.0398,-140.9909"/>
</g>
<!-- MaterialModule&#45;&gt;CoreModule -->
<g id="edge6" class="edge">
<title>MaterialModule&#45;&gt;CoreModule</title>
<path fill="none" stroke="#000000" d="M476.4603,-122.1061C476.4603,-122.1061 476.4603,-140.991 476.4603,-140.991"/>
<polygon fill="#000000" stroke="#000000" points="472.9604,-140.9909 476.4603,-150.991 479.9604,-140.991 472.9604,-140.9909"/>
</g>
<!-- UiLoadingModule -->
<g id="node5" class="node">
<title>UiLoadingModule</title>
<polygon fill="#8dd3c7" stroke="#000000" points="390.205,-122 387.205,-126 366.205,-126 363.205,-122 269.795,-122 269.795,-86 390.205,-86 390.205,-122"/>
<text text-anchor="middle" x="330" y="-99.8" font-family="Times,serif" font-size="14.00" fill="#000000">UiLoadingModule</text>
</g>
<!-- UiLoadingModule&#45;&gt;CoreModule -->
<g id="edge4" class="edge">
<title>UiLoadingModule&#45;&gt;CoreModule</title>
<path fill="none" stroke="#000000" d="M330,-122.027C330,-138.3976 330,-160 330,-160 330,-160 408.4124,-160 408.4124,-160"/>
<polygon fill="#000000" stroke="#000000" points="408.4125,-163.5001 418.4124,-160 408.4124,-156.5001 408.4125,-163.5001"/>
</g>
<!-- AuthModule -->
<g id="node6" class="node">
<title>AuthModule</title>
<polygon fill="#8dd3c7" stroke="#000000" points="251.5482,-122 248.5482,-126 227.5482,-126 224.5482,-122 164.4518,-122 164.4518,-86 251.5482,-86 251.5482,-122"/>
<text text-anchor="middle" x="208" y="-99.8" font-family="Times,serif" font-size="14.00" fill="#000000">AuthModule</text>
</g>
<!-- AuthModule&#45;&gt;CoreModule -->
<g id="edge5" class="edge">
<title>AuthModule&#45;&gt;CoreModule</title>
<path fill="none" stroke="#000000" d="M208,-122.1061C208,-141.3391 208,-169 208,-169 208,-169 408.6244,-169 408.6244,-169"/>
<polygon fill="#000000" stroke="#000000" points="408.6245,-172.5001 418.6244,-169 408.6244,-165.5001 408.6245,-172.5001"/>
</g>
<!-- DataService -->
<g id="node7" class="node">
<title>DataService</title>
<ellipse fill="#fdb462" stroke="#000000" cx="82" cy="-104" rx="58.4415" ry="18"/>
<text text-anchor="middle" x="82" y="-99.8" font-family="Times,serif" font-size="14.00" fill="#000000">DataService</text>
</g>
<!-- DataService&#45;&gt;CoreModule -->
<g id="edge7" class="edge">
<title>DataService&#45;&gt;CoreModule</title>
<path fill="none" stroke="#000000" d="M82,-122.2921C82,-144.2057 82,-178 82,-178 82,-178 408.4092,-178 408.4092,-178"/>
<polygon fill="#000000" stroke="#000000" points="408.4092,-181.5001 418.4092,-178 408.4091,-174.5001 408.4092,-181.5001"/>
</g>
</g>
</svg>
