<?xml version="1.0" encoding="UTF-8" standalone="no"?>
<!DOCTYPE svg PUBLIC "-//W3C//DTD SVG 1.1//EN"
 "http://www.w3.org/Graphics/SVG/1.1/DTD/svg11.dtd">
<!-- Generated by graphviz version 2.40.1 (20161225.0304)
 -->
<!-- Title: dependencies Pages: 1 -->
<svg width="2559pt" height="211pt"
 viewBox="0.00 0.00 2559.00 211.00" xmlns="http://www.w3.org/2000/svg" xmlns:xlink="http://www.w3.org/1999/xlink">
<g id="graph0" class="graph" transform="scale(1 1) rotate(0) translate(4 207)">
<title>dependencies</title>
<polygon fill="#ffffff" stroke="transparent" points="-4,4 -4,-207 2555,-207 2555,4 -4,4"/>
<text text-anchor="start" x="1254.5091" y="-42.4" font-family="sans-serif" font-weight="bold" font-size="14.00" fill="#000000">Legend</text>
<polygon fill="#ffffb3" stroke="transparent" points="1041.5,-10 1041.5,-30 1061.5,-30 1061.5,-10 1041.5,-10"/>
<text text-anchor="start" x="1065.129" y="-15.4" font-family="sans-serif" font-size="14.00" fill="#000000"> &#160;Declarations</text>
<polygon fill="#8dd3c7" stroke="transparent" points="1154.5,-10 1154.5,-30 1174.5,-30 1174.5,-10 1154.5,-10"/>
<text text-anchor="start" x="1178.2251" y="-15.4" font-family="sans-serif" font-size="14.00" fill="#000000"> &#160;Module</text>
<polygon fill="#80b1d3" stroke="transparent" points="1240.5,-10 1240.5,-30 1260.5,-30 1260.5,-10 1240.5,-10"/>
<text text-anchor="start" x="1264.2812" y="-15.4" font-family="sans-serif" font-size="14.00" fill="#000000"> &#160;Bootstrap</text>
<polygon fill="#fdb462" stroke="transparent" points="1337.5,-10 1337.5,-30 1357.5,-30 1357.5,-10 1337.5,-10"/>
<text text-anchor="start" x="1361.1732" y="-15.4" font-family="sans-serif" font-size="14.00" fill="#000000"> &#160;Providers</text>
<polygon fill="#fb8072" stroke="transparent" points="1433.5,-10 1433.5,-30 1453.5,-30 1453.5,-10 1433.5,-10"/>
<text text-anchor="start" x="1457.2258" y="-15.4" font-family="sans-serif" font-size="14.00" fill="#000000"> &#160;Exports</text>
<g id="clust1" class="cluster">
<title>cluster_AdminModule</title>
<polygon fill="none" stroke="#000000" stroke-dasharray="1,5" points="8,-70 8,-195 2543,-195 2543,-70 8,-70"/>
</g>
<g id="clust2" class="cluster">
<title>cluster_AdminModule_declarations</title>
<polygon fill="none" stroke="#000000" points="475,-78 475,-130 2535,-130 2535,-78 475,-78"/>
</g>
<g id="clust14" class="cluster">
<title>cluster_AdminModule_imports</title>
<polygon fill="none" stroke="#000000" points="206,-78 206,-130 467,-130 467,-78 206,-78"/>
</g>
<g id="clust17" class="cluster">
<title>cluster_AdminModule_providers</title>
<polygon fill="none" stroke="#000000" points="16,-78 16,-130 198,-130 198,-78 16,-78"/>
</g>
<!-- PatientListComponent -->
<g id="node1" class="node">
<title>PatientListComponent</title>
<polygon fill="#ffffb3" stroke="#000000" points="2526.9944,-122 2385.0056,-122 2385.0056,-86 2526.9944,-86 2526.9944,-122"/>
<text text-anchor="middle" x="2456" y="-99.8" font-family="Times,serif" font-size="14.00" fill="#000000">PatientListComponent</text>
</g>
<!-- AdminModule -->
<g id="node12" class="node">
<title>AdminModule</title>
<polygon fill="#8dd3c7" stroke="#000000" points="1396.4386,-187 1393.4386,-191 1372.4386,-191 1369.4386,-187 1297.5614,-187 1297.5614,-151 1396.4386,-151 1396.4386,-187"/>
<text text-anchor="middle" x="1347" y="-164.8" font-family="Times,serif" font-size="14.00" fill="#000000">AdminModule</text>
</g>
<!-- PatientListComponent&#45;&gt;AdminModule -->
<g id="edge1" class="edge">
<title>PatientListComponent&#45;&gt;AdminModule</title>
<path fill="none" stroke="#000000" d="M2456,-122.0908C2456,-145.1328 2456,-182 2456,-182 2456,-182 1406.444,-182 1406.444,-182"/>
<polygon fill="#000000" stroke="#000000" points="1406.444,-178.5001 1396.444,-182 1406.444,-185.5001 1406.444,-178.5001"/>
</g>
<!-- DoctorsListComponent -->
<g id="node2" class="node">
<title>DoctorsListComponent</title>
<polygon fill="#ffffb3" stroke="#000000" points="2366.9284,-122 2219.0716,-122 2219.0716,-86 2366.9284,-86 2366.9284,-122"/>
<text text-anchor="middle" x="2293" y="-99.8" font-family="Times,serif" font-size="14.00" fill="#000000">DoctorsListComponent</text>
</g>
<!-- DoctorsListComponent&#45;&gt;AdminModule -->
<g id="edge2" class="edge">
<title>DoctorsListComponent&#45;&gt;AdminModule</title>
<path fill="none" stroke="#000000" d="M2293,-122.0449C2293,-143.6623 2293,-177 2293,-177 2293,-177 1406.5291,-177 1406.5291,-177"/>
<polygon fill="#000000" stroke="#000000" points="1406.5292,-173.5001 1396.5291,-177 1406.5291,-180.5001 1406.5292,-173.5001"/>
</g>
<!-- DashboardComponent -->
<g id="node3" class="node">
<title>DashboardComponent</title>
<polygon fill="#ffffb3" stroke="#000000" points="2200.9734,-122 2059.0266,-122 2059.0266,-86 2200.9734,-86 2200.9734,-122"/>
<text text-anchor="middle" x="2130" y="-99.8" font-family="Times,serif" font-size="14.00" fill="#000000">DashboardComponent</text>
</g>
<!-- DashboardComponent&#45;&gt;AdminModule -->
<g id="edge3" class="edge">
<title>DashboardComponent&#45;&gt;AdminModule</title>
<path fill="none" stroke="#000000" d="M2130,-122.2228C2130,-142.3652 2130,-172 2130,-172 2130,-172 1406.2768,-172 1406.2768,-172"/>
<polygon fill="#000000" stroke="#000000" points="1406.2768,-168.5001 1396.2768,-172 1406.2767,-175.5001 1406.2768,-168.5001"/>
</g>
<!-- PatientGenderComponent -->
<g id="node4" class="node">
<title>PatientGenderComponent</title>
<polygon fill="#ffffb3" stroke="#000000" points="2040.9129,-122 1879.0871,-122 1879.0871,-86 2040.9129,-86 2040.9129,-122"/>
<text text-anchor="middle" x="1960" y="-99.8" font-family="Times,serif" font-size="14.00" fill="#000000">PatientGenderComponent</text>
</g>
<!-- PatientGenderComponent&#45;&gt;AdminModule -->
<g id="edge4" class="edge">
<title>PatientGenderComponent&#45;&gt;AdminModule</title>
<path fill="none" stroke="#000000" d="M1960,-122.2222C1960,-140.8285 1960,-167 1960,-167 1960,-167 1406.3863,-167 1406.3863,-167"/>
<polygon fill="#000000" stroke="#000000" points="1406.3864,-163.5001 1396.3863,-167 1406.3863,-170.5001 1406.3864,-163.5001"/>
</g>
<!-- DoctorGenderComponent -->
<g id="node5" class="node">
<title>DoctorGenderComponent</title>
<polygon fill="#ffffb3" stroke="#000000" points="1861.9017,-122 1700.0983,-122 1700.0983,-86 1861.9017,-86 1861.9017,-122"/>
<text text-anchor="middle" x="1781" y="-99.8" font-family="Times,serif" font-size="14.00" fill="#000000">DoctorGenderComponent</text>
</g>
<!-- DoctorGenderComponent&#45;&gt;AdminModule -->
<g id="edge5" class="edge">
<title>DoctorGenderComponent&#45;&gt;AdminModule</title>
<path fill="none" stroke="#000000" d="M1781,-122.0336C1781,-139.0597 1781,-162 1781,-162 1781,-162 1406.3628,-162 1406.3628,-162"/>
<polygon fill="#000000" stroke="#000000" points="1406.3628,-158.5001 1396.3628,-162 1406.3627,-165.5001 1406.3628,-158.5001"/>
</g>
<!-- DoctorCityComponent -->
<g id="node6" class="node">
<title>DoctorCityComponent</title>
<polygon fill="#ffffb3" stroke="#000000" points="1682.323,-122 1537.677,-122 1537.677,-86 1682.323,-86 1682.323,-122"/>
<text text-anchor="middle" x="1610" y="-99.8" font-family="Times,serif" font-size="14.00" fill="#000000">DoctorCityComponent</text>
</g>
<!-- DoctorCityComponent&#45;&gt;AdminModule -->
<g id="edge6" class="edge">
<title>DoctorCityComponent&#45;&gt;AdminModule</title>
<path fill="none" stroke="#000000" d="M1610,-122.2396C1610,-137.5706 1610,-157 1610,-157 1610,-157 1406.4683,-157 1406.4683,-157"/>
<polygon fill="#000000" stroke="#000000" points="1406.4683,-153.5001 1396.4683,-157 1406.4683,-160.5001 1406.4683,-153.5001"/>
</g>
<!-- PatientCityComponent -->
<g id="node7" class="node">
<title>PatientCityComponent</title>
<polygon fill="#ffffb3" stroke="#000000" points="1520.3342,-122 1375.6658,-122 1375.6658,-86 1520.3342,-86 1520.3342,-122"/>
<text text-anchor="middle" x="1448" y="-99.8" font-family="Times,serif" font-size="14.00" fill="#000000">PatientCityComponent</text>
</g>
<!-- PatientCityComponent&#45;&gt;AdminModule -->
<g id="edge7" class="edge">
<title>PatientCityComponent&#45;&gt;AdminModule</title>
<path fill="none" stroke="#000000" d="M1386.026,-122.1061C1386.026,-122.1061 1386.026,-140.991 1386.026,-140.991"/>
<polygon fill="#000000" stroke="#000000" points="1382.526,-140.9909 1386.026,-150.991 1389.526,-140.991 1382.526,-140.9909"/>
</g>
<!-- PatientSexualOrientationComponent -->
<g id="node8" class="node">
<title>PatientSexualOrientationComponent</title>
<polygon fill="#ffffb3" stroke="#000000" points="1358.0772,-122 1135.9228,-122 1135.9228,-86 1358.0772,-86 1358.0772,-122"/>
<text text-anchor="middle" x="1247" y="-99.8" font-family="Times,serif" font-size="14.00" fill="#000000">PatientSexualOrientationComponent</text>
</g>
<!-- PatientSexualOrientationComponent&#45;&gt;AdminModule -->
<g id="edge8" class="edge">
<title>PatientSexualOrientationComponent&#45;&gt;AdminModule</title>
<path fill="none" stroke="#000000" d="M1327.9099,-122.1061C1327.9099,-122.1061 1327.9099,-140.991 1327.9099,-140.991"/>
<polygon fill="#000000" stroke="#000000" points="1324.41,-140.9909 1327.9099,-150.991 1331.41,-140.991 1324.41,-140.9909"/>
</g>
<!-- DoctorSexualOrientationComponent -->
<g id="node9" class="node">
<title>DoctorSexualOrientationComponent</title>
<polygon fill="#ffffb3" stroke="#000000" points="1118.066,-122 895.934,-122 895.934,-86 1118.066,-86 1118.066,-122"/>
<text text-anchor="middle" x="1007" y="-99.8" font-family="Times,serif" font-size="14.00" fill="#000000">DoctorSexualOrientationComponent</text>
</g>
<!-- DoctorSexualOrientationComponent&#45;&gt;AdminModule -->
<g id="edge9" class="edge">
<title>DoctorSexualOrientationComponent&#45;&gt;AdminModule</title>
<path fill="none" stroke="#000000" d="M1007,-122.2396C1007,-137.5706 1007,-157 1007,-157 1007,-157 1287.5611,-157 1287.5611,-157"/>
<polygon fill="#000000" stroke="#000000" points="1287.5611,-160.5001 1297.5611,-157 1287.561,-153.5001 1287.5611,-160.5001"/>
</g>
<!-- PatientRegistrationComponent -->
<g id="node10" class="node">
<title>PatientRegistrationComponent</title>
<polygon fill="#ffffb3" stroke="#000000" points="878.1497,-122 689.8503,-122 689.8503,-86 878.1497,-86 878.1497,-122"/>
<text text-anchor="middle" x="784" y="-99.8" font-family="Times,serif" font-size="14.00" fill="#000000">PatientRegistrationComponent</text>
</g>
<!-- PatientRegistrationComponent&#45;&gt;AdminModule -->
<g id="edge10" class="edge">
<title>PatientRegistrationComponent&#45;&gt;AdminModule</title>
<path fill="none" stroke="#000000" d="M784,-122.0336C784,-139.0597 784,-162 784,-162 784,-162 1287.5309,-162 1287.5309,-162"/>
<polygon fill="#000000" stroke="#000000" points="1287.531,-165.5001 1297.5309,-162 1287.5309,-158.5001 1287.531,-165.5001"/>
</g>
<!-- DoctorRegistrationComponent -->
<g id="node11" class="node">
<title>DoctorRegistrationComponent</title>
<polygon fill="#ffffb3" stroke="#000000" points="671.1385,-122 482.8615,-122 482.8615,-86 671.1385,-86 671.1385,-122"/>
<text text-anchor="middle" x="577" y="-99.8" font-family="Times,serif" font-size="14.00" fill="#000000">DoctorRegistrationComponent</text>
</g>
<!-- DoctorRegistrationComponent&#45;&gt;AdminModule -->
<g id="edge11" class="edge">
<title>DoctorRegistrationComponent&#45;&gt;AdminModule</title>
<path fill="none" stroke="#000000" d="M577,-122.2222C577,-140.8285 577,-167 577,-167 577,-167 1287.6617,-167 1287.6617,-167"/>
<polygon fill="#000000" stroke="#000000" points="1287.6617,-170.5001 1297.6617,-167 1287.6617,-163.5001 1287.6617,-170.5001"/>
</g>
<!-- MaterialModule -->
<g id="node13" class="node">
<title>MaterialModule</title>
<polygon fill="#8dd3c7" stroke="#000000" points="459.4706,-122 456.4706,-126 435.4706,-126 432.4706,-122 352.5294,-122 352.5294,-86 459.4706,-86 459.4706,-122"/>
<text text-anchor="middle" x="406" y="-99.8" font-family="Times,serif" font-size="14.00" fill="#000000">MaterialModule</text>
</g>
<!-- MaterialModule&#45;&gt;AdminModule -->
<g id="edge12" class="edge">
<title>MaterialModule&#45;&gt;AdminModule</title>
<path fill="none" stroke="#000000" d="M406,-122.2228C406,-142.3652 406,-172 406,-172 406,-172 1287.7326,-172 1287.7326,-172"/>
<polygon fill="#000000" stroke="#000000" points="1287.7327,-175.5001 1297.7326,-172 1287.7326,-168.5001 1287.7327,-175.5001"/>
</g>
<!-- UiLoadingModule -->
<g id="node14" class="node">
<title>UiLoadingModule</title>
<polygon fill="#8dd3c7" stroke="#000000" points="334.205,-122 331.205,-126 310.205,-126 307.205,-122 213.795,-122 213.795,-86 334.205,-86 334.205,-122"/>
<text text-anchor="middle" x="274" y="-99.8" font-family="Times,serif" font-size="14.00" fill="#000000">UiLoadingModule</text>
</g>
<!-- UiLoadingModule&#45;&gt;AdminModule -->
<g id="edge13" class="edge">
<title>UiLoadingModule&#45;&gt;AdminModule</title>
<path fill="none" stroke="#000000" d="M274,-122.0449C274,-143.6623 274,-177 274,-177 274,-177 1287.7537,-177 1287.7537,-177"/>
<polygon fill="#000000" stroke="#000000" points="1287.7537,-180.5001 1297.7537,-177 1287.7536,-173.5001 1287.7537,-180.5001"/>
</g>
<!-- AdmindataService -->
<g id="node15" class="node">
<title>AdmindataService</title>
<ellipse fill="#fdb462" stroke="#000000" cx="107" cy="-104" rx="82.8032" ry="18"/>
<text text-anchor="middle" x="107" y="-99.8" font-family="Times,serif" font-size="14.00" fill="#000000">AdmindataService</text>
</g>
<!-- AdmindataService&#45;&gt;AdminModule -->
<g id="edge14" class="edge">
<title>AdmindataService&#45;&gt;AdminModule</title>
<path fill="none" stroke="#000000" d="M107,-122.0908C107,-145.1328 107,-182 107,-182 107,-182 1287.6253,-182 1287.6253,-182"/>
<polygon fill="#000000" stroke="#000000" points="1287.6254,-185.5001 1297.6253,-182 1287.6253,-178.5001 1287.6254,-185.5001"/>
</g>
</g>
</svg>
